<?xml version="1.0" encoding="UTF-8" standalone="no"?>
<!-- Created with Inkscape (http://www.inkscape.org/) -->

<svg xmlns:dc="http://purl.org/dc/elements/1.1/" xmlns:cc="http://creativecommons.org/ns#" xmlns:rdf="http://www.w3.org/1999/02/22-rdf-syntax-ns#" xmlns:svg="http://www.w3.org/2000/svg" xmlns="http://www.w3.org/2000/svg" xmlns:sodipodi="http://sodipodi.sourceforge.net/DTD/sodipodi-0.dtd" xmlns:inkscape="http://www.inkscape.org/namespaces/inkscape" width="11.365mm" height="14.206mm" viewBox="0 0 40.268 50.338" id="svg2" version="1.1" inkscape:version="0.91 r13725" inkscape:export-filename="/Users/stuartlowe/Projects/cosmos-book.github.io/high-jump/astronaut.png" inkscape:export-xdpi="178.79" inkscape:export-ydpi="178.79" sodipodi:docname="astronaut.svg">
  <defs id="defs4" />
  <sodipodi:namedview id="base" pagecolor="#ffffff" bordercolor="#666666" borderopacity="1.0" inkscape:pageopacity="0.0" inkscape:pageshadow="2" inkscape:zoom="22.4" inkscape:cx="34.404" inkscape:cy="9.9553" inkscape:document-units="px" inkscape:current-layer="layer1" showgrid="false" fit-margin-top="0" fit-margin-left="0" fit-margin-right="0" fit-margin-bottom="0" showguides="false" inkscape:window-width="1280" inkscape:window-height="752" inkscape:window-x="0" inkscape:window-y="0" inkscape:window-maximized="1" />
  <metadata id="metadata7">
    <rdf:RDF>
      <cc:Work rdf:about="">
        <dc:format>image/svg+xml</dc:format>
        <dc:type rdf:resource="http://purl.org/dc/dcmitype/StillImage" />
        <dc:title></dc:title>
      </cc:Work>
    </rdf:RDF>
  </metadata>
  <g inkscape:label="Layer 1" inkscape:groupmode="layer" id="layer1" transform="translate(-691.29,-818.62)">
    <path style="fill:#4f458d;fill-opacity:1" d="m 692.74,818.95 c -2.04,0.93 -1.78,1.39 -0.19,5.82 0,0 1.12,2.81 2.23,3.88 1.11,1.07 4.2,2.23 4.2,2.23 l 0.83,0.44 -0.31,10.92 c 0,0.56 0.46,1.01 1.06,1.03 l 1.93,0.1 c 0.74,2.23 2.36,4.38 3.59,6.45 0,0 3.18,4.18 3.59,6.09 -0.14,3.61 -0.73,7.3 -1.29,10.91 -0.2,1.24 -0.1,1.64 0.63,1.84 1.51,0.25 3.1,0.26 4.49,0.32 0,0 0.88,-0.94 0.64,-1.88 -0.39,-1.11 -0.81,-1.24 -1.29,-1.21 0.26,-1.2 0.58,-2.84 1.04,-5.14 0,0 1.41,-4.56 1.21,-6.02 -0.53,-1.65 -1.73,-3.3 -2.17,-4.82 0.16,0 1.16,0.44 2.22,0.99 1.44,0.73 2.84,2.32 5.37,6.05 2.04,3.01 2.49,3.92 3.1,4.4 0.6,0.48 1.46,-0.12 1.84,-0.27 l 2.18,-1.79 c 0,0 -0.1,-1.51 -0.73,-2.07 -0.99,-0.58 -1.36,0 -1.93,0.58 -0.33,-0.84 -0.79,-1.95 -1.44,-3.5 -2.41,-5.73 -2.42,-5.74 -6.65,-9.2 -3.57,-2.93 -4.2,-3.66 -3.95,-4.62 0.15,-0.63 0.42,-2.17 0.6,-3.42 0.17,-1.25 0.29,-1.67 0.58,-1.85 0.29,-0.18 2.36,-0.36 4.91,-0.56 8.09,-0.61 14.07,-4.45 12.1,-7.15 -1.29,-1.65 -1.19,-0.14 -5.08,1.18 -3.69,1.25 -5.25,1.04 -9.73,1.14 l -2.44,-0.18 c 1.05,-2.51 1.26,-5.34 0.48,-7.66 -1.14,-3 -6.87,-3.57 -8.51,-1.08 -0.84,1.27 -1.27,2.6 -1.33,3.97 l -3.41,-0.1 c -0.61,0 -1.11,0.42 -1.12,0.97 l 0,0.7 c -2.63,-1.05 -2.22,-0.95 -3.88,-3.2 -1.66,-2.25 -1.33,-5.22 -3.37,-4.29 z" id="path3366" inkscape:connector-curvature="0" sodipodi:nodetypes="zczccccccccccccccccczccccccccsccccccccccczz" />
  </g>
</svg>
