<?xml version="1.0" encoding="UTF-8" standalone="no"?>
<!-- Created with Inkscape (http://www.inkscape.org/) -->

<svg xmlns:dc="http://purl.org/dc/elements/1.1/" xmlns:cc="http://creativecommons.org/ns#" xmlns:rdf="http://www.w3.org/1999/02/22-rdf-syntax-ns#" xmlns:svg="http://www.w3.org/2000/svg" xmlns="http://www.w3.org/2000/svg" xmlns:sodipodi="http://sodipodi.sourceforge.net/DTD/sodipodi-0.dtd" xmlns:inkscape="http://www.inkscape.org/namespaces/inkscape" id="svg4136" version="1.1" inkscape:version="0.91 r13725" width="80" height="50" viewBox="0 0 80 50" sodipodi:docname="philae.svg" inkscape:export-filename="/Users/stuartlowe/Projects/cosmos-book.github.io/high-jump/philae.png" inkscape:export-xdpi="180" inkscape:export-ydpi="180">
  <metadata id="metadata4142">
    <rdf:RDF>
      <cc:Work rdf:about="">
        <dc:format>image/svg+xml</dc:format>
        <dc:type rdf:resource="http://purl.org/dc/dcmitype/StillImage" />
        <dc:title></dc:title>
      </cc:Work>
    </rdf:RDF>
  </metadata>
  <defs id="defs4140" />
  <sodipodi:namedview pagecolor="#ffffff" bordercolor="#666666" borderopacity="1" objecttolerance="10" gridtolerance="10" guidetolerance="10" inkscape:pageopacity="0" inkscape:pageshadow="2" inkscape:window-width="1275" inkscape:window-height="675" id="namedview4138" showgrid="false" inkscape:zoom="15.481" inkscape:cx="37.432" inkscape:cy="15.442" inkscape:window-x="32" inkscape:window-y="119" inkscape:window-maximized="0" inkscape:current-layer="svg4136" />
  <path style="fill:#4f458d;fill-opacity:1;fill-rule:evenodd;stroke:none;stroke-width:1px;stroke-linecap:butt;stroke-linejoin:miter;stroke-opacity:1" d="m 17.54,40.865 0,4.019 -1.096,0.548 0,1.462 4.933,0 -0.118,-1.622 -1.344,-0.571 0,-1.644 2.01,-0.936 3.213,0.08 5.557,2.87 10.049,0 -0.05,3.46 -0.913,0 -0.129,1.548 6.212,-0.08 0,-1.279 -1.096,-0.365 0,-3.472 4.019,0 5.116,-2.923 2.923,0 1.279,1.279 0.118,1.579 -1.214,0.431 0,1.461 4.385,0 0,-1.461 -0.613,-0.42 0.06,-3.783 -19.271,0.366 0,-2.741 7.395,-0.731 0.548,-13.703 -2.375,0 0,-1.279 -2.741,-0.183 -0.365,-0.913 -1.645,0 -0.365,2.01 -11.145,0.182 0.365,14.069 7.932,0.537 0.107,2.752 z" id="path4154" inkscape:connector-curvature="0" sodipodi:nodetypes="ccccccccccccccccccccccccccccccccccccccccccccc" />
</svg>
